<svg width="281" height="102" viewBox="0 0 281 102" fill="none" xmlns="http://www.w3.org/2000/svg">
<path style="mix-blend-mode:screen" d="M126.975 69.027H113.543V34.117H126.838C130.429 34.117 133.531 34.817 136.145 36.214C138.77 37.601 140.793 39.601 142.213 42.214C143.645 44.817 144.361 47.936 144.361 51.572C144.361 55.209 143.651 58.334 142.23 60.947C140.81 63.549 138.799 65.549 136.196 66.947C133.594 68.334 130.52 69.027 126.975 69.027ZM123.02 60.981H126.634C128.361 60.981 129.833 60.703 131.049 60.146C132.276 59.589 133.208 58.629 133.844 57.266C134.492 55.902 134.816 54.004 134.816 51.572C134.816 49.14 134.486 47.242 133.827 45.879C133.179 44.515 132.225 43.555 130.963 42.999C129.713 42.442 128.179 42.163 126.361 42.163H123.02V60.981ZM148.746 69.027V34.117H173.905V41.754H158.223V47.754H172.61V55.39H158.223V61.39H173.837V69.027H148.746ZM197.424 45.027C197.333 43.89 196.906 43.004 196.145 42.367C195.395 41.731 194.253 41.413 192.719 41.413C191.742 41.413 190.941 41.533 190.316 41.771C189.702 41.998 189.247 42.311 188.952 42.709C188.657 43.1028 188.496 43.5803 188.492 44.072C188.469 44.492 188.543 44.873 188.713 45.214C188.895 45.544 189.179 45.845 189.566 46.118C189.952 46.379 190.446 46.618 191.049 46.834C191.651 47.049 192.367 47.243 193.196 47.414L196.06 48.027C197.992 48.436 199.645 48.976 201.02 49.647C202.395 50.317 203.52 51.107 204.395 52.015C205.247 52.8769 205.904 53.912 206.321 55.05C206.742 56.175 206.958 57.402 206.969 58.731C206.958 61.027 206.384 62.97 205.247 64.561C204.111 66.151 202.486 67.362 200.372 68.191C198.27 69.021 195.742 69.436 192.787 69.436C189.753 69.436 187.105 68.987 184.844 68.089C182.594 67.192 180.844 65.811 179.594 63.947C178.355 62.072 177.73 59.674 177.719 56.754H186.719C186.776 57.822 187.043 58.72 187.52 59.447C187.997 60.174 188.668 60.726 189.531 61.101C190.406 61.476 191.446 61.663 192.651 61.663C193.662 61.663 194.509 61.538 195.191 61.288C195.872 61.038 196.389 60.692 196.742 60.248C197.094 59.805 197.276 59.3 197.287 58.731C197.276 58.197 197.1 57.731 196.759 57.334C196.429 56.924 195.884 56.561 195.122 56.243C194.361 55.913 193.333 55.606 192.037 55.323L188.56 54.573C185.469 53.902 183.031 52.783 181.247 51.214C179.475 49.634 178.594 47.481 178.605 44.754C178.594 42.538 179.185 40.601 180.378 38.942C181.583 37.272 183.247 35.97 185.372 35.038C187.509 34.106 189.958 33.64 192.719 33.64C195.537 33.64 197.975 34.112 200.031 35.055C202.088 35.998 203.674 37.328 204.787 39.044C205.912 40.748 206.48 42.743 206.492 45.027H197.424ZM233.245 45.64C233.112 45.0728 232.875 44.5353 232.546 44.055C232.228 43.5895 231.823 43.1901 231.353 42.879C230.857 42.536 230.302 42.2875 229.716 42.146C229.055 41.9693 228.372 41.8832 227.688 41.89C226.097 41.89 224.739 42.271 223.614 43.032C222.5 43.794 221.648 44.89 221.057 46.322C220.478 47.754 220.188 49.482 220.188 51.504C220.188 53.55 220.466 55.3 221.023 56.754C221.58 58.209 222.409 59.322 223.512 60.095C224.614 60.868 225.983 61.255 227.62 61.255C229.063 61.255 230.262 61.044 231.216 60.623C232.182 60.203 232.904 59.606 233.381 58.833C233.858 58.061 234.097 57.152 234.097 56.106L235.733 56.276H227.756V49.526H243.233V54.368C243.233 57.549 242.557 60.271 241.205 62.532C239.864 64.782 238.012 66.51 235.648 67.714C233.296 68.908 230.597 69.504 227.551 69.504C224.154 69.504 221.171 68.782 218.603 67.339C216.034 65.896 214.029 63.839 212.585 61.169C211.154 58.499 210.438 55.322 210.438 51.64C210.438 48.754 210.875 46.197 211.75 43.97C212.637 41.743 213.864 39.862 215.432 38.328C216.98 36.7956 218.833 35.6052 220.87 34.834C222.926 34.038 225.131 33.64 227.483 33.64C229.551 33.64 231.472 33.936 233.245 34.527C235.029 35.107 236.603 35.936 237.966 37.015C239.313 38.0515 240.443 39.3435 241.29 40.817C242.131 42.282 242.642 43.89 242.824 45.64H233.245ZM277.857 34.118V69.027H269.948L257.334 50.686H257.129V69.026H247.652V34.119H255.698L268.107 52.391H268.379V34.118H277.857Z" fill="url(#paint0_linear_9_15)"/>
<g style="mix-blend-mode:screen">
<path d="M50.8744 91.8691C63.1203 86.7967 68.9355 72.7575 63.8631 60.5116C58.7907 48.2657 44.7515 42.4505 32.5056 47.5229C20.2598 52.5953 14.4445 66.6345 19.5169 78.8804C24.5893 91.1263 38.6286 96.9415 50.8744 91.8691Z" fill="#EC4899"/>
</g>
<g style="mix-blend-mode:screen">
<path d="M83.2104 78.4751C95.4562 73.4027 101.271 59.3635 96.1991 47.1176C91.1267 34.8717 77.0874 29.0565 64.8416 34.1289C52.5957 39.2013 46.7805 53.2405 51.8529 65.4864C56.9253 77.7323 70.9645 83.5475 83.2104 78.4751Z" fill="#F87171"/>
</g>
<g style="mix-blend-mode:screen">
<path d="M58.0954 59.6531C70.3412 54.5807 76.1565 40.5415 71.0841 28.2956C66.0117 16.0497 51.9724 10.2345 39.7266 15.3069C27.4807 20.3793 21.6655 34.4185 26.7379 46.6644C31.8103 58.9103 45.8495 64.7255 58.0954 59.6531Z" fill="#4F46E5"/>
</g>
<defs>
<linearGradient id="paint0_linear_9_15" x1="102.803" y1="23.027" x2="280.259" y2="64.206" gradientUnits="userSpaceOnUse">
<stop stop-color="#FFBEFB"/>
<stop offset="1" stop-color="#F87171"/>
</linearGradient>
</defs>
</svg>
