<svg width="355" height="333" viewBox="0 0 355 333" fill="none" xmlns="http://www.w3.org/2000/svg">
<g clip-path="url(#clip0_11_35)">
<path d="M355 166.5C355.062 205.803 340.241 243.849 313.18 273.855C312.197 274.95 311.196 276.027 310.177 277.099C298.179 289.756 284.202 300.632 268.725 309.356C265.175 311.355 261.547 313.239 257.842 315.008C257.467 315.186 257.086 315.365 256.712 315.538C256.263 315.751 255.809 315.958 255.354 316.166C245.977 320.471 236.21 323.984 226.168 326.663C225.124 326.939 224.078 327.208 223.03 327.469C209.82 330.748 196.251 332.582 182.592 332.937C181.879 332.954 181.179 332.965 180.503 332.977C180.264 332.983 180.03 332.988 179.797 332.988C179.029 332.994 178.268 333 177.5 333C163.106 333.01 148.764 331.379 134.789 328.143C133.389 327.821 131.995 327.481 130.607 327.124C123.295 325.251 116.121 322.936 109.129 320.193C105.444 318.752 101.824 317.199 98.2699 315.532C97.4653 315.152 96.6607 314.771 95.8684 314.38C95.5306 314.224 95.1989 314.057 94.8673 313.896C75.9247 304.517 58.9375 292.016 44.7189 276.989C43.7362 275.958 42.7719 274.909 41.82 273.855C26.1537 256.432 14.4677 236.176 7.48573 214.344C0.503749 192.512 -1.62555 169.568 1.22973 146.933C4.08501 124.297 11.8641 102.453 24.0851 82.7521C36.3061 63.0514 52.7089 45.914 72.2775 32.4013C73.2847 31.7041 74.2982 31.0128 75.3239 30.3387C75.5265 30.2062 75.7292 30.0737 75.9319 29.9412C93.9541 18.0995 114.182 9.53064 135.569 4.67814C136.786 4.39584 138.002 4.13083 139.23 3.88309C162.395 -0.870113 186.336 -1.26372 209.665 2.72508C210.887 2.93824 212.109 3.15717 213.326 3.39338C234.521 7.47149 254.737 15.1718 272.963 26.11C273.368 26.3519 273.774 26.5939 274.179 26.8474C274.996 27.3429 275.813 27.8499 276.617 28.3626C300.762 43.5886 320.541 64.1536 334.21 88.244C347.88 112.334 355.019 139.21 355 166.5Z" fill="#F2F2F2"/>
<path d="M132.664 252.636L75.9319 257.361L75.3239 257.412V30.3387C75.5265 30.2062 75.7292 30.0737 75.9319 29.9412C87.7555 22.1835 100.546 15.8104 114.018 10.9637L116.917 48.4694L117.181 51.9031L120.049 89.0977L120.933 100.54L132.56 251.311L132.664 252.636Z" fill="#CCCCCC"/>
<path d="M272.963 26.11C273.368 26.3519 273.774 26.5939 274.179 26.8474V257.412L272.963 257.309L216.845 252.636L216.949 251.311L228.576 100.54L229.46 89.0977L232.328 51.9031L232.593 48.4694L235.633 9.13734C248.744 13.4003 261.273 19.0971 272.963 26.11Z" fill="#CCCCCC"/>
<path d="M272.963 26.11V260.558C272.963 265.058 269.659 268.716 265.593 268.716H83.3022C79.9364 268.716 77.0804 266.204 76.2144 262.776C76.0254 262.05 75.9305 261.305 75.9319 260.558V29.9412C75.7292 30.0737 75.5266 30.2062 75.3239 30.3387C74.2982 31.0128 73.2848 31.7041 72.2775 32.4012V260.558C72.2231 263.976 73.5837 267.28 76.0732 269.776C77.3786 271.059 79.0297 271.987 80.8516 272.461C81.6503 272.665 82.4744 272.767 83.3022 272.766H265.593C266.423 272.767 267.249 272.664 268.05 272.461C272.951 271.222 276.617 266.36 276.617 260.558V28.3626C275.813 27.8499 274.996 27.3429 274.179 26.8474C273.774 26.5939 273.368 26.3519 272.963 26.11Z" fill="#CCCCCC"/>
<path d="M274.792 48.4716H74.1048V51.9048H274.792V48.4716Z" fill="#CCCCCC"/>
<path d="M135.569 4.67813C136.786 4.39582 138.002 4.13081 139.23 3.88308V97.1058H135.569V4.67813Z" fill="#CCCCCC"/>
<path d="M209.665 2.72507C210.887 2.93823 212.109 3.15716 213.326 3.39337V97.1058H209.665V2.72507Z" fill="#CCCCCC"/>
<path d="M297.666 251.311H57.3282C52.9594 251.311 48.7696 252.939 45.6804 255.837C42.5912 258.735 40.8557 262.665 40.8557 266.763C40.8557 270.861 42.5912 274.791 45.6804 277.689C48.7696 280.587 52.9594 282.215 57.3282 282.215H297.666C300.005 282.215 302.317 281.747 304.449 280.842C306.58 279.937 308.48 278.615 310.023 276.966C310.722 276.221 311.343 275.414 311.878 274.558C312.292 273.901 312.652 273.216 312.953 272.507C313.956 270.163 314.331 267.624 314.045 265.112C313.759 262.6 312.82 260.193 311.311 258.1C309.802 256.008 307.769 254.295 305.39 253.112C303.011 251.928 300.359 251.31 297.666 251.311Z" fill="#CCCCCC"/>
<path d="M274.792 89.097H75.3248V100.541H274.792V89.097Z" fill="#CCCCCC"/>
<path d="M173.228 85.6639H176.888C177.769 85.6639 178.642 85.8267 179.456 86.143C180.27 86.4593 181.01 86.9229 181.633 87.5074C182.256 88.0919 182.75 88.7857 183.087 89.5493C183.425 90.313 183.598 91.1314 183.598 91.958H166.518C166.518 90.2887 167.225 88.6878 168.484 87.5074C169.742 86.327 171.449 85.6639 173.228 85.6639Z" fill="#CCCCCC"/>
<path d="M313.18 273.855C307.844 279.785 302.073 285.359 295.909 290.534H59.0909C52.9266 285.359 47.1556 279.785 41.82 273.855H313.18Z" fill="#3F3D56"/>
<path d="M197.326 216.087H157.453C157.238 216.085 157.024 216.116 156.82 216.179C156.387 216.305 156.009 216.557 155.74 216.899C155.472 217.241 155.327 217.655 155.328 218.08V277.168H199.457V218.08C199.457 217.818 199.402 217.559 199.294 217.317C199.187 217.074 199.03 216.855 198.832 216.669C198.634 216.484 198.399 216.338 198.141 216.238C197.882 216.138 197.605 216.087 197.326 216.087ZM182.235 245.239C182.237 246.197 181.9 247.129 181.277 247.889C180.683 248.627 179.857 249.171 178.916 249.444C177.975 249.718 176.966 249.708 176.031 249.415C175.096 249.123 174.283 248.562 173.706 247.813C173.128 247.064 172.817 246.163 172.814 245.239V238.383C172.825 237.218 173.327 236.105 174.209 235.285C175.091 234.465 176.283 234.005 177.525 234.005C178.766 234.005 179.958 234.465 180.84 235.285C181.722 236.105 182.224 237.218 182.235 238.383V245.239Z" fill="#2F2E41"/>
<path d="M155.193 275.278V280.976C155.193 281.271 155.317 281.555 155.539 281.764C155.762 281.974 156.063 282.092 156.378 282.094H198.407C198.722 282.091 199.022 281.972 199.244 281.763C199.466 281.554 199.591 281.271 199.592 280.976V275.278H155.193Z" fill="#3F3D56"/>
<path d="M263.351 123.878H92.9142C91.4498 123.88 90.0458 124.426 89.0097 125.397C87.9737 126.368 87.39 127.684 87.3865 129.058V236.943C87.3877 238.318 87.9704 239.636 89.0068 240.608C90.0432 241.58 91.4485 242.127 92.9142 242.128H263.351C264.817 242.127 266.222 241.58 267.258 240.608C268.295 239.636 268.878 238.318 268.879 236.943V129.058C268.875 127.684 268.292 126.368 267.255 125.397C266.219 124.426 264.815 123.88 263.351 123.878Z" fill="#3F3D56"/>
<path d="M261.926 127.623H94.333C93.5489 127.625 92.7975 127.918 92.2437 128.439C91.6899 128.959 91.3788 129.665 91.3787 130.4V235.612C91.3801 236.346 91.6917 237.051 92.2455 237.57C92.7992 238.089 93.5499 238.382 94.333 238.383H261.926C262.709 238.382 263.46 238.089 264.014 237.57C264.567 237.051 264.879 236.346 264.88 235.612V130.4C264.88 129.665 264.569 128.959 264.015 128.439C263.462 127.918 262.71 127.625 261.926 127.623Z" fill="#6C63FF"/>
<path d="M231.082 282.001L229.534 275.105C229.47 274.824 229.332 274.562 229.132 274.344C228.933 274.126 228.678 273.958 228.392 273.855C228.184 273.779 227.963 273.74 227.74 273.74H131.123C130.9 273.74 130.679 273.779 130.472 273.855C130.185 273.958 129.931 274.126 129.731 274.344C129.532 274.562 129.393 274.824 129.329 275.105L127.782 282.001C127.726 282.252 127.73 282.511 127.794 282.759C127.858 283.008 127.981 283.24 128.152 283.439C128.324 283.637 128.541 283.798 128.787 283.908C129.033 284.018 129.302 284.075 129.575 284.076H229.282C229.556 284.077 229.826 284.02 230.073 283.909C230.32 283.798 230.536 283.637 230.707 283.436C230.879 283.238 231.002 283.007 231.067 282.758C231.132 282.51 231.137 282.252 231.082 282.001Z" fill="#2F2E41"/>
<path d="M134.602 274.982H132.131C131.965 274.982 131.831 275.108 131.831 275.263V276.429C131.831 276.584 131.965 276.71 132.131 276.71H134.602C134.768 276.71 134.902 276.584 134.902 276.429V275.263C134.902 275.108 134.768 274.982 134.602 274.982Z" fill="#3F3D56"/>
<path d="M140.744 274.982H138.273C138.107 274.982 137.973 275.108 137.973 275.263V276.429C137.973 276.584 138.107 276.71 138.273 276.71H140.744C140.909 276.71 141.044 276.584 141.044 276.429V275.263C141.044 275.108 140.909 274.982 140.744 274.982Z" fill="#3F3D56"/>
<path d="M146.886 274.982H144.414C144.249 274.982 144.115 275.108 144.115 275.263V276.429C144.115 276.584 144.249 276.71 144.414 276.71H146.886C147.051 276.71 147.186 276.584 147.186 276.429V275.263C147.186 275.108 147.051 274.982 146.886 274.982Z" fill="#3F3D56"/>
<path d="M153.028 274.982H150.556C150.391 274.982 150.257 275.108 150.257 275.263V276.429C150.257 276.584 150.391 276.71 150.556 276.71H153.028C153.193 276.71 153.327 276.584 153.327 276.429V275.263C153.327 275.108 153.193 274.982 153.028 274.982Z" fill="#3F3D56"/>
<path d="M159.169 274.982H156.698C156.533 274.982 156.398 275.108 156.398 275.263V276.429C156.398 276.584 156.533 276.71 156.698 276.71H159.169C159.335 276.71 159.469 276.584 159.469 276.429V275.263C159.469 275.108 159.335 274.982 159.169 274.982Z" fill="#3F3D56"/>
<path d="M165.311 274.982H162.84C162.674 274.982 162.54 275.108 162.54 275.263V276.429C162.54 276.584 162.674 276.71 162.84 276.71H165.311C165.477 276.71 165.611 276.584 165.611 276.429V275.263C165.611 275.108 165.477 274.982 165.311 274.982Z" fill="#3F3D56"/>
<path d="M171.453 274.982H168.982C168.816 274.982 168.682 275.108 168.682 275.263V276.429C168.682 276.584 168.816 276.71 168.982 276.71H171.453C171.619 276.71 171.753 276.584 171.753 276.429V275.263C171.753 275.108 171.619 274.982 171.453 274.982Z" fill="#3F3D56"/>
<path d="M177.595 274.982H175.124C174.958 274.982 174.824 275.108 174.824 275.263V276.429C174.824 276.584 174.958 276.71 175.124 276.71H177.595C177.761 276.71 177.895 276.584 177.895 276.429V275.263C177.895 275.108 177.761 274.982 177.595 274.982Z" fill="#3F3D56"/>
<path d="M183.737 274.982H181.266C181.1 274.982 180.966 275.108 180.966 275.263V276.429C180.966 276.584 181.1 276.71 181.266 276.71H183.737C183.903 276.71 184.037 276.584 184.037 276.429V275.263C184.037 275.108 183.903 274.982 183.737 274.982Z" fill="#3F3D56"/>
<path d="M189.879 274.982H187.408C187.242 274.982 187.108 275.108 187.108 275.263V276.429C187.108 276.584 187.242 276.71 187.408 276.71H189.879C190.044 276.71 190.179 276.584 190.179 276.429V275.263C190.179 275.108 190.044 274.982 189.879 274.982Z" fill="#3F3D56"/>
<path d="M196.021 274.982H193.549C193.384 274.982 193.25 275.108 193.25 275.263V276.429C193.25 276.584 193.384 276.71 193.549 276.71H196.021C196.186 276.71 196.321 276.584 196.321 276.429V275.263C196.321 275.108 196.186 274.982 196.021 274.982Z" fill="#3F3D56"/>
<path d="M202.163 274.982H199.691C199.526 274.982 199.391 275.108 199.391 275.263V276.429C199.391 276.584 199.526 276.71 199.691 276.71H202.163C202.328 276.71 202.462 276.584 202.462 276.429V275.263C202.462 275.108 202.328 274.982 202.163 274.982Z" fill="#3F3D56"/>
<path d="M208.304 274.982H205.833C205.668 274.982 205.533 275.108 205.533 275.263V276.429C205.533 276.584 205.668 276.71 205.833 276.71H208.304C208.47 276.71 208.604 276.584 208.604 276.429V275.263C208.604 275.108 208.47 274.982 208.304 274.982Z" fill="#3F3D56"/>
<path d="M214.446 274.982H211.975C211.809 274.982 211.675 275.108 211.675 275.263V276.429C211.675 276.584 211.809 276.71 211.975 276.71H214.446C214.612 276.71 214.746 276.584 214.746 276.429V275.263C214.746 275.108 214.612 274.982 214.446 274.982Z" fill="#3F3D56"/>
<path d="M220.588 274.982H218.117C217.951 274.982 217.817 275.108 217.817 275.263V276.429C217.817 276.584 217.951 276.71 218.117 276.71H220.588C220.754 276.71 220.888 276.584 220.888 276.429V275.263C220.888 275.108 220.754 274.982 220.588 274.982Z" fill="#3F3D56"/>
<path d="M226.73 274.982H224.259C224.093 274.982 223.959 275.108 223.959 275.263V276.429C223.959 276.584 224.093 276.71 224.259 276.71H226.73C226.896 276.71 227.03 276.584 227.03 276.429V275.263C227.03 275.108 226.896 274.982 226.73 274.982Z" fill="#3F3D56"/>
<path d="M134.529 277.862H132.058C131.893 277.862 131.758 277.988 131.758 278.144V279.31C131.758 279.465 131.893 279.591 132.058 279.591H134.529C134.695 279.591 134.829 279.465 134.829 279.31V278.144C134.829 277.988 134.695 277.862 134.529 277.862Z" fill="#3F3D56"/>
<path d="M140.671 277.862H138.2C138.034 277.862 137.9 277.988 137.9 278.144V279.31C137.9 279.465 138.034 279.591 138.2 279.591H140.671C140.837 279.591 140.971 279.465 140.971 279.31V278.144C140.971 277.988 140.837 277.862 140.671 277.862Z" fill="#3F3D56"/>
<path d="M146.813 277.862H144.342C144.176 277.862 144.042 277.988 144.042 278.144V279.31C144.042 279.465 144.176 279.591 144.342 279.591H146.813C146.979 279.591 147.113 279.465 147.113 279.31V278.144C147.113 277.988 146.979 277.862 146.813 277.862Z" fill="#3F3D56"/>
<path d="M152.955 277.862H150.484C150.318 277.862 150.184 277.988 150.184 278.144V279.31C150.184 279.465 150.318 279.591 150.484 279.591H152.955C153.121 279.591 153.255 279.465 153.255 279.31V278.144C153.255 277.988 153.121 277.862 152.955 277.862Z" fill="#3F3D56"/>
<path d="M159.097 277.862H156.626C156.46 277.862 156.326 277.988 156.326 278.144V279.31C156.326 279.465 156.46 279.591 156.626 279.591H159.097C159.262 279.591 159.397 279.465 159.397 279.31V278.144C159.397 277.988 159.262 277.862 159.097 277.862Z" fill="#3F3D56"/>
<path d="M165.239 277.862H162.768C162.602 277.862 162.468 277.988 162.468 278.144V279.31C162.468 279.465 162.602 279.591 162.768 279.591H165.239C165.404 279.591 165.539 279.465 165.539 279.31V278.144C165.539 277.988 165.404 277.862 165.239 277.862Z" fill="#3F3D56"/>
<path d="M171.381 277.862H168.909C168.744 277.862 168.61 277.988 168.61 278.144V279.31C168.61 279.465 168.744 279.591 168.909 279.591H171.381C171.546 279.591 171.68 279.465 171.68 279.31V278.144C171.68 277.988 171.546 277.862 171.381 277.862Z" fill="#3F3D56"/>
<path d="M177.523 277.862H175.051C174.886 277.862 174.751 277.988 174.751 278.144V279.31C174.751 279.465 174.886 279.591 175.051 279.591H177.523C177.688 279.591 177.822 279.465 177.822 279.31V278.144C177.822 277.988 177.688 277.862 177.523 277.862Z" fill="#3F3D56"/>
<path d="M183.664 277.862H181.193C181.028 277.862 180.893 277.988 180.893 278.144V279.31C180.893 279.465 181.028 279.591 181.193 279.591H183.664C183.83 279.591 183.964 279.465 183.964 279.31V278.144C183.964 277.988 183.83 277.862 183.664 277.862Z" fill="#3F3D56"/>
<path d="M189.806 277.862H187.335C187.169 277.862 187.035 277.988 187.035 278.144V279.31C187.035 279.465 187.169 279.591 187.335 279.591H189.806C189.972 279.591 190.106 279.465 190.106 279.31V278.144C190.106 277.988 189.972 277.862 189.806 277.862Z" fill="#3F3D56"/>
<path d="M195.948 277.862H193.477C193.311 277.862 193.177 277.988 193.177 278.144V279.31C193.177 279.465 193.311 279.591 193.477 279.591H195.948C196.114 279.591 196.248 279.465 196.248 279.31V278.144C196.248 277.988 196.114 277.862 195.948 277.862Z" fill="#3F3D56"/>
<path d="M202.09 277.862H199.619C199.453 277.862 199.319 277.988 199.319 278.144V279.31C199.319 279.465 199.453 279.591 199.619 279.591H202.09C202.256 279.591 202.39 279.465 202.39 279.31V278.144C202.39 277.988 202.256 277.862 202.09 277.862Z" fill="#3F3D56"/>
<path d="M208.232 277.862H205.761C205.595 277.862 205.461 277.988 205.461 278.144V279.31C205.461 279.465 205.595 279.591 205.761 279.591H208.232C208.397 279.591 208.532 279.465 208.532 279.31V278.144C208.532 277.988 208.397 277.862 208.232 277.862Z" fill="#3F3D56"/>
<path d="M214.374 277.862H211.902C211.737 277.862 211.603 277.988 211.603 278.144V279.31C211.603 279.465 211.737 279.591 211.902 279.591H214.374C214.539 279.591 214.674 279.465 214.674 279.31V278.144C214.674 277.988 214.539 277.862 214.374 277.862Z" fill="#3F3D56"/>
<path d="M220.516 277.862H218.044C217.879 277.862 217.744 277.988 217.744 278.144V279.31C217.744 279.465 217.879 279.591 218.044 279.591H220.516C220.681 279.591 220.815 279.465 220.815 279.31V278.144C220.815 277.988 220.681 277.862 220.516 277.862Z" fill="#3F3D56"/>
<path d="M226.657 277.862H224.186C224.021 277.862 223.886 277.988 223.886 278.144V279.31C223.886 279.465 224.021 279.591 224.186 279.591H226.657C226.823 279.591 226.957 279.465 226.957 279.31V278.144C226.957 277.988 226.823 277.862 226.657 277.862Z" fill="#3F3D56"/>
<path d="M185.507 281.319H161.539C161.374 281.319 161.239 281.445 161.239 281.6V282.766C161.239 282.922 161.374 283.048 161.539 283.048H185.507C185.673 283.048 185.807 282.922 185.807 282.766V281.6C185.807 281.445 185.673 281.319 185.507 281.319Z" fill="#3F3D56"/>
<path d="M253.504 142.117H96.6882C96.5252 142.113 96.3701 142.05 96.256 141.941C96.142 141.831 96.0782 141.684 96.0782 141.532C96.0782 141.379 96.142 141.232 96.256 141.122C96.3701 141.013 96.5252 140.95 96.6882 140.947H253.504C253.667 140.95 253.823 141.013 253.937 141.122C254.051 141.232 254.115 141.379 254.115 141.532C254.115 141.684 254.051 141.831 253.937 141.941C253.823 142.05 253.667 142.113 253.504 142.117Z" fill="#3F3D56"/>
<path d="M107.363 137.96C109.381 137.96 111.018 136.391 111.018 134.455C111.018 132.52 109.381 130.951 107.363 130.951C105.344 130.951 103.708 132.52 103.708 134.455C103.708 136.391 105.344 137.96 107.363 137.96Z" fill="#3F3D56"/>
<path d="M119.988 137.96C122.007 137.96 123.643 136.391 123.643 134.455C123.643 132.52 122.007 130.951 119.988 130.951C117.97 130.951 116.333 132.52 116.333 134.455C116.333 136.391 117.97 137.96 119.988 137.96Z" fill="#3F3D56"/>
<path d="M132.613 137.96C134.632 137.96 136.268 136.391 136.268 134.455C136.268 132.52 134.632 130.951 132.613 130.951C130.595 130.951 128.959 132.52 128.959 134.455C128.959 136.391 130.595 137.96 132.613 137.96Z" fill="#3F3D56"/>
<path d="M245.902 131.817H236.935C236.758 131.821 236.589 131.89 236.465 132.009C236.341 132.128 236.272 132.288 236.272 132.454C236.272 132.62 236.341 132.78 236.465 132.899C236.589 133.018 236.758 133.087 236.935 133.091H245.902C246.08 133.088 246.251 133.02 246.376 132.901C246.501 132.782 246.571 132.621 246.571 132.454C246.571 132.287 246.501 132.126 246.376 132.007C246.251 131.888 246.08 131.82 245.902 131.817Z" fill="#3F3D56"/>
<path d="M245.902 134.208H236.935C236.757 134.212 236.589 134.281 236.465 134.4C236.34 134.519 236.271 134.678 236.271 134.845C236.271 135.011 236.34 135.171 236.465 135.29C236.589 135.409 236.757 135.478 236.935 135.481H245.902C246.081 135.479 246.251 135.411 246.377 135.292C246.502 135.173 246.573 135.012 246.573 134.845C246.573 134.677 246.502 134.517 246.377 134.397C246.251 134.278 246.081 134.21 245.902 134.208Z" fill="#3F3D56"/>
<path d="M245.902 136.599H236.935C236.758 136.603 236.589 136.672 236.465 136.791C236.341 136.91 236.272 137.069 236.272 137.236C236.272 137.402 236.341 137.562 236.465 137.681C236.589 137.8 236.758 137.868 236.935 137.872H245.902C246.08 137.87 246.251 137.802 246.376 137.683C246.501 137.564 246.571 137.403 246.571 137.236C246.571 137.068 246.501 136.908 246.376 136.789C246.251 136.67 246.08 136.601 245.902 136.599Z" fill="#3F3D56"/>
<path d="M110.21 155.711H106.988C106.011 155.711 105.219 156.454 105.219 157.37C105.219 158.287 106.011 159.029 106.988 159.029H110.21C111.187 159.029 111.979 158.287 111.979 157.37C111.979 156.454 111.187 155.711 110.21 155.711Z" fill="#E6E6E6"/>
<path d="M147.061 155.711H143.839C142.862 155.711 142.07 156.454 142.07 157.37C142.07 158.287 142.862 159.029 143.839 159.029H147.061C148.038 159.029 148.83 158.287 148.83 157.37C148.83 156.454 148.038 155.711 147.061 155.711Z" fill="#E6E6E6"/>
<path d="M157.502 155.711H154.28C153.303 155.711 152.511 156.454 152.511 157.37C152.511 158.287 153.303 159.029 154.28 159.029H157.502C158.479 159.029 159.271 158.287 159.271 157.37C159.271 156.454 158.479 155.711 157.502 155.711Z" fill="#E6E6E6"/>
<path d="M137.037 155.434H117.011C116.034 155.434 115.243 156.177 115.243 157.094C115.243 158.01 116.034 158.753 117.011 158.753H137.037C138.014 158.753 138.806 158.01 138.806 157.094C138.806 156.177 138.014 155.434 137.037 155.434Z" fill="#E6E6E6"/>
<path d="M186.172 155.434H166.146C165.169 155.434 164.377 156.177 164.377 157.094C164.377 158.01 165.169 158.753 166.146 158.753H186.172C187.149 158.753 187.941 158.01 187.941 157.094C187.941 156.177 187.149 155.434 186.172 155.434Z" fill="#E6E6E6"/>
<path d="M120.037 163.201H116.815C115.838 163.201 115.046 163.944 115.046 164.86C115.046 165.776 115.838 166.519 116.815 166.519H120.037C121.014 166.519 121.806 165.776 121.806 164.86C121.806 163.944 121.014 163.201 120.037 163.201Z" fill="#E6E6E6"/>
<path d="M156.888 163.201H153.666C152.689 163.201 151.897 163.944 151.897 164.86C151.897 165.776 152.689 166.519 153.666 166.519H156.888C157.865 166.519 158.657 165.776 158.657 164.86C158.657 163.944 157.865 163.201 156.888 163.201Z" fill="#E6E6E6"/>
<path d="M167.329 163.201H164.107C163.13 163.201 162.338 163.944 162.338 164.86C162.338 165.776 163.13 166.519 164.107 166.519H167.329C168.306 166.519 169.098 165.776 169.098 164.86C169.098 163.944 168.306 163.201 167.329 163.201Z" fill="#E6E6E6"/>
<path d="M146.864 162.924H126.838C125.861 162.924 125.07 163.667 125.07 164.583C125.07 165.5 125.861 166.243 126.838 166.243H146.864C147.841 166.243 148.633 165.5 148.633 164.583C148.633 163.667 147.841 162.924 146.864 162.924Z" fill="#E6E6E6"/>
<path d="M195.999 162.924H175.973C174.996 162.924 174.204 163.667 174.204 164.583C174.204 165.5 174.996 166.243 175.973 166.243H195.999C196.976 166.243 197.768 165.5 197.768 164.583C197.768 163.667 196.976 162.924 195.999 162.924Z" fill="#E6E6E6"/>
<path d="M129.864 170.69H126.642C125.665 170.69 124.873 171.433 124.873 172.35C124.873 173.266 125.665 174.009 126.642 174.009H129.864C130.841 174.009 131.633 173.266 131.633 172.35C131.633 171.433 130.841 170.69 129.864 170.69Z" fill="#E6E6E6"/>
<path d="M166.715 170.69H163.493C162.516 170.69 161.724 171.433 161.724 172.35C161.724 173.266 162.516 174.009 163.493 174.009H166.715C167.692 174.009 168.484 173.266 168.484 172.35C168.484 171.433 167.692 170.69 166.715 170.69Z" fill="#E6E6E6"/>
<path d="M177.156 170.69H173.934C172.957 170.69 172.165 171.433 172.165 172.35C172.165 173.266 172.957 174.009 173.934 174.009H177.156C178.133 174.009 178.925 173.266 178.925 172.35C178.925 171.433 178.133 170.69 177.156 170.69Z" fill="#E6E6E6"/>
<path d="M156.691 170.414H136.665C135.688 170.414 134.896 171.157 134.896 172.073C134.896 172.989 135.688 173.732 136.665 173.732H156.691C157.668 173.732 158.46 172.989 158.46 172.073C158.46 171.157 157.668 170.414 156.691 170.414Z" fill="#E6E6E6"/>
<path d="M205.826 170.414H185.8C184.823 170.414 184.031 171.157 184.031 172.073C184.031 172.989 184.823 173.732 185.8 173.732H205.826C206.803 173.732 207.595 172.989 207.595 172.073C207.595 171.157 206.803 170.414 205.826 170.414Z" fill="#E6E6E6"/>
<path d="M139.691 178.18H136.469C135.492 178.18 134.7 178.923 134.7 179.839C134.7 180.755 135.492 181.498 136.469 181.498H139.691C140.668 181.498 141.46 180.755 141.46 179.839C141.46 178.923 140.668 178.18 139.691 178.18Z" fill="#E6E6E6"/>
<path d="M176.542 178.18H173.32C172.343 178.18 171.551 178.923 171.551 179.839C171.551 180.755 172.343 181.498 173.32 181.498H176.542C177.519 181.498 178.311 180.755 178.311 179.839C178.311 178.923 177.519 178.18 176.542 178.18Z" fill="#E6E6E6"/>
<path d="M186.983 178.18H183.761C182.784 178.18 181.992 178.923 181.992 179.839C181.992 180.755 182.784 181.498 183.761 181.498H186.983C187.96 181.498 188.752 180.755 188.752 179.839C188.752 178.923 187.96 178.18 186.983 178.18Z" fill="#E6E6E6"/>
<path d="M166.518 177.903H146.492C145.515 177.903 144.723 178.646 144.723 179.563C144.723 180.479 145.515 181.222 146.492 181.222H166.518C167.495 181.222 168.287 180.479 168.287 179.563C168.287 178.646 167.495 177.903 166.518 177.903Z" fill="#E6E6E6"/>
<path d="M147.061 207.962H143.839C142.862 207.962 142.07 208.705 142.07 209.621C142.07 210.537 142.862 211.28 143.839 211.28H147.061C148.038 211.28 148.83 210.537 148.83 209.621C148.83 208.705 148.038 207.962 147.061 207.962Z" fill="#E6E6E6"/>
<path d="M157.502 207.962H154.28C153.303 207.962 152.511 208.705 152.511 209.621C152.511 210.537 153.303 211.28 154.28 211.28H157.502C158.479 211.28 159.271 210.537 159.271 209.621C159.271 208.705 158.479 207.962 157.502 207.962Z" fill="#E6E6E6"/>
<path d="M186.172 208.238H166.146C165.169 208.238 164.377 208.981 164.377 209.898C164.377 210.814 165.169 211.557 166.146 211.557H186.172C187.149 211.557 187.941 210.814 187.941 209.898C187.941 208.981 187.149 208.238 186.172 208.238Z" fill="#E6E6E6"/>
<path d="M110.21 207.962H106.988C106.011 207.962 105.219 208.705 105.219 209.621C105.219 210.537 106.011 211.28 106.988 211.28H110.21C111.187 211.28 111.979 210.537 111.979 209.621C111.979 208.705 111.187 207.962 110.21 207.962Z" fill="#E6E6E6"/>
<path d="M137.037 208.238H117.011C116.034 208.238 115.243 208.981 115.243 209.898C115.243 210.814 116.034 211.557 117.011 211.557H137.037C138.014 211.557 138.806 210.814 138.806 209.898C138.806 208.981 138.014 208.238 137.037 208.238Z" fill="#E6E6E6"/>
<path d="M120.037 200.472H116.815C115.838 200.472 115.046 201.215 115.046 202.131C115.046 203.048 115.838 203.791 116.815 203.791H120.037C121.014 203.791 121.806 203.048 121.806 202.131C121.806 201.215 121.014 200.472 120.037 200.472Z" fill="#E6E6E6"/>
<path d="M156.888 200.472H153.666C152.689 200.472 151.897 201.215 151.897 202.131C151.897 203.048 152.689 203.791 153.666 203.791H156.888C157.865 203.791 158.657 203.048 158.657 202.131C158.657 201.215 157.865 200.472 156.888 200.472Z" fill="#E6E6E6"/>
<path d="M167.329 200.472H164.107C163.13 200.472 162.338 201.215 162.338 202.131C162.338 203.048 163.13 203.791 164.107 203.791H167.329C168.306 203.791 169.098 203.048 169.098 202.131C169.098 201.215 168.306 200.472 167.329 200.472Z" fill="#E6E6E6"/>
<path d="M146.864 200.749H126.838C125.861 200.749 125.07 201.492 125.07 202.408C125.07 203.324 125.861 204.067 126.838 204.067H146.864C147.841 204.067 148.633 203.324 148.633 202.408C148.633 201.492 147.841 200.749 146.864 200.749Z" fill="#E6E6E6"/>
<path d="M129.864 192.983H126.642C125.665 192.983 124.873 193.725 124.873 194.642C124.873 195.558 125.665 196.301 126.642 196.301H129.864C130.841 196.301 131.633 195.558 131.633 194.642C131.633 193.725 130.841 192.983 129.864 192.983Z" fill="#E6E6E6"/>
<path d="M166.715 192.983H163.493C162.516 192.983 161.724 193.725 161.724 194.642C161.724 195.558 162.516 196.301 163.493 196.301H166.715C167.692 196.301 168.484 195.558 168.484 194.642C168.484 193.725 167.692 192.983 166.715 192.983Z" fill="#E6E6E6"/>
<path d="M177.156 192.983H173.934C172.957 192.983 172.165 193.725 172.165 194.642C172.165 195.558 172.957 196.301 173.934 196.301H177.156C178.133 196.301 178.925 195.558 178.925 194.642C178.925 193.725 178.133 192.983 177.156 192.983Z" fill="#E6E6E6"/>
<path d="M156.691 193.259H136.665C135.688 193.259 134.896 194.002 134.896 194.918C134.896 195.835 135.688 196.578 136.665 196.578H156.691C157.668 196.578 158.46 195.835 158.46 194.918C158.46 194.002 157.668 193.259 156.691 193.259Z" fill="#E6E6E6"/>
<path d="M139.691 185.493H136.469C135.492 185.493 134.7 186.236 134.7 187.152C134.7 188.069 135.492 188.811 136.469 188.811H139.691C140.668 188.811 141.46 188.069 141.46 187.152C141.46 186.236 140.668 185.493 139.691 185.493Z" fill="#E6E6E6"/>
<path d="M176.542 185.493H173.32C172.343 185.493 171.551 186.236 171.551 187.152C171.551 188.069 172.343 188.811 173.32 188.811H176.542C177.519 188.811 178.311 188.069 178.311 187.152C178.311 186.236 177.519 185.493 176.542 185.493Z" fill="#E6E6E6"/>
<path d="M186.983 185.493H183.761C182.784 185.493 181.992 186.236 181.992 187.152C181.992 188.069 182.784 188.811 183.761 188.811H186.983C187.96 188.811 188.752 188.069 188.752 187.152C188.752 186.236 187.96 185.493 186.983 185.493Z" fill="#E6E6E6"/>
<path d="M166.518 185.77H146.492C145.515 185.77 144.723 186.512 144.723 187.429C144.723 188.345 145.515 189.088 146.492 189.088H166.518C167.495 189.088 168.287 188.345 168.287 187.429C168.287 186.512 167.495 185.77 166.518 185.77Z" fill="#E6E6E6"/>
<path d="M255.385 316.16C255.01 316.338 254.63 316.517 254.255 316.69C244.551 321.241 236.787 323.828 226.168 326.663C225.271 317.272 224.405 300.766 223.564 290.534C223.343 287.878 223.122 285.648 222.907 284.075C222.853 283.239 222.671 282.415 222.366 281.627L222.403 284.075L222.495 290.534L223.03 327.469C209.82 330.748 196.251 332.582 182.592 332.937C181.879 332.954 181.179 332.965 180.503 332.977C180.264 332.983 180.03 332.988 179.797 332.988C179.029 332.994 178.268 333 177.5 333C163.106 333.01 148.764 331.379 134.789 328.143C135.09 318.85 135.391 302.529 135.68 290.534C135.741 288.189 135.797 286.006 135.858 284.075C135.975 279.95 136.098 276.978 136.214 275.981C136.111 276.158 136.031 276.345 135.975 276.54C135.406 279.024 135.018 281.542 134.814 284.075C134.599 286.006 134.384 288.189 134.169 290.534C133.027 302.995 131.835 319.939 130.607 327.123C123.295 325.251 116.121 322.936 109.129 320.193C105.444 318.752 101.824 317.199 98.2699 315.532C98.9455 311.384 99.6518 306.734 100.377 301.912C100.942 298.173 101.525 294.33 102.121 290.534C103.042 284.669 103.988 278.919 104.946 273.855C106.346 266.458 107.784 260.512 109.209 257.781C110.56 255.189 111.911 252.631 113.219 250.182C113.674 249.324 114.128 248.477 114.57 247.653C114.675 247.457 114.779 247.267 114.884 247.077C115.823 245.343 116.732 243.683 117.598 242.128C118.342 240.797 119.048 239.541 119.717 238.383C121.339 235.572 122.715 233.33 123.734 231.913C127.997 225.848 134.342 221.333 141.717 219.117L141.902 219.071L142.031 219.123L154.591 215.505L156.427 214.975L157.662 214.618L162.01 211.513L164.375 209.825L166.592 208.24L170.928 205.146L197.774 206.696L203.001 218.501L214.707 222.517L214.91 222.43L215.088 222.361L215.272 222.407C222.647 224.625 228.992 229.139 233.256 235.203C233.833 236.015 234.533 237.087 235.326 238.383C236.001 239.483 236.738 240.739 237.537 242.128C238.673 244.104 239.914 246.334 241.228 248.748C241.517 249.278 241.812 249.819 242.106 250.366C242.653 251.38 243.208 252.415 243.771 253.472C245.079 255.92 246.43 258.478 247.781 261.077C248.954 263.329 250.14 267.961 251.307 273.855C252.271 278.752 253.229 284.525 254.157 290.534C255.373 298.323 254.077 307.65 255.176 314.817C255.244 315.273 255.317 315.716 255.385 316.16Z" fill="#3F3D56"/>
<path d="M177.878 195.724C195.122 195.724 209.101 182.611 209.101 166.436C209.101 150.26 195.122 137.147 177.878 137.147C160.634 137.147 146.655 150.26 146.655 166.436C146.655 182.611 160.634 195.724 177.878 195.724Z" fill="#A0616A"/>
<path d="M229.368 127.623C228.751 126.272 227.93 125.01 226.93 123.878C222.188 118.445 213.565 116.055 204.715 122.484C203.011 122.127 201.235 122.223 199.586 122.761C198.808 123.025 198.078 123.402 197.424 123.878C196.084 124.859 195.039 126.149 194.39 127.623C194.044 128.401 193.816 129.222 193.715 130.06C191.527 128.994 189.211 128.176 186.817 127.623C180.943 126.253 174.8 126.253 168.926 127.623C167.044 128.07 165.231 128.744 163.533 129.628C160.659 131.184 159.007 133.148 158.712 135.332C154.566 135.551 150.255 137.596 147.042 140.949C146.68 141.323 146.33 141.715 146.004 142.118C143.303 145.434 141.852 149.497 141.877 153.67V154.401H142.657C144.794 154.399 146.912 154.787 148.891 155.542C150.174 156.025 151.389 156.654 152.509 157.415C153.241 157.902 153.933 158.441 154.579 159.028C156.075 160.386 157.342 161.95 158.337 163.665C160.889 168.001 161.774 173.027 160.843 177.902C160.63 179.03 160.318 180.14 159.91 181.22C159.329 182.761 158.565 184.236 157.631 185.616C157.594 185.668 157.563 185.72 157.527 185.771C157.115 186.388 156.722 187.016 156.354 187.65C156.077 188.122 155.819 188.606 155.58 189.09C154.88 190.437 154.288 191.831 153.811 193.261C152.956 195.79 152.452 198.412 152.312 201.062C152.269 201.765 152.257 202.467 152.281 203.17C152.318 204.982 152.53 206.787 152.914 208.563C152.969 208.805 153.025 209.041 153.08 209.283L153.528 211.121L154.591 215.505L155.328 218.524L156.01 221.324L157.017 219.97C157.361 219.509 158.227 218.092 159.388 216.087C160.155 214.779 161.046 213.218 162.01 211.513C163.355 209.122 164.829 206.454 166.273 203.793C166.856 202.715 167.433 201.644 167.992 200.595C169.049 198.607 170.044 196.689 170.897 194.984C171.684 193.411 172.353 192.017 172.851 190.899C173.004 191.631 173.133 192.374 173.231 193.123C173.342 193.883 173.422 194.655 173.465 195.427C173.477 195.542 173.483 195.663 173.489 195.779L173.514 196.251L173.52 196.389L174.171 196.47C177.926 196.847 181.712 196.874 185.472 196.551H185.478C190.46 196.199 195.348 195.088 199.949 193.261C202.562 192.198 205.001 190.793 207.196 189.09C208.221 188.294 209.178 187.423 210.058 186.486C210.279 186.25 210.494 186.013 210.703 185.771C211.918 184.37 212.959 182.843 213.805 181.22C214.371 180.149 214.851 179.04 215.242 177.902C217.6 171.201 217.465 162.842 214.836 152.909C215.546 152.781 216.227 152.535 216.845 152.183C218.773 151.095 220.112 148.934 220.53 146.295L221.193 146.462C223.545 145.435 225.639 143.955 227.341 142.118C227.678 141.745 227.994 141.354 228.287 140.949C231.29 136.801 231.315 131.823 229.368 127.623Z" fill="#2F2E41"/>
<path opacity="0.2" d="M126.719 273.83L131.938 254.937L136.546 271.239L126.719 273.83Z" fill="black"/>
<path d="M265.593 261.52C263.726 285.648 265.66 296.272 255.354 316.166C245.977 320.471 236.21 323.984 226.168 326.663C225.124 326.939 224.078 327.208 223.03 327.469C209.82 330.748 196.251 332.582 182.592 332.937C181.879 332.954 181.179 332.965 180.503 332.977C180.264 332.983 180.03 332.988 179.797 332.988C179.029 332.994 178.268 333 177.5 333C163.106 333.01 148.764 331.379 134.789 328.143C133.389 327.821 131.995 327.481 130.607 327.124C123.295 325.251 116.121 322.936 109.129 320.193C105.444 318.752 101.824 317.199 98.2699 315.532C97.4653 315.152 96.6607 314.771 95.8684 314.38C91.7964 307.662 89.4809 299.493 89.4317 289.675C92.2509 272.76 259.365 246.933 265.593 261.52Z" fill="#2F2E41"/>
<path opacity="0.2" d="M265.588 265.652C265.683 264.159 265.79 262.616 265.914 261.009C259.686 246.421 92.5723 272.249 89.7532 289.164C89.761 290.715 89.8317 292.22 89.9506 293.689C96.7776 276.994 255.538 252.447 265.588 265.652Z" fill="black"/>
<path d="M100.171 197.122C100.212 196.6 100.133 196.075 99.9393 195.584C99.7458 195.093 99.4423 194.646 99.0494 194.274C98.6564 193.902 98.183 193.613 97.6611 193.427C97.1392 193.241 96.5809 193.162 96.0237 193.195C95.8161 193.203 95.6095 193.227 95.4064 193.268L70.985 198.443C70.4393 198.567 69.9274 198.797 69.4822 199.118C69.0369 199.439 68.6683 199.844 68.4001 200.307C68.0419 200.319 67.6863 200.368 67.3391 200.451C66.5792 200.613 65.8606 200.913 65.2244 201.335C64.5882 201.757 64.0468 202.293 63.6313 202.911C63.2157 203.53 62.934 204.219 62.8023 204.939C62.6707 205.66 62.6915 206.397 62.8638 207.11C63.0361 207.823 63.3563 208.497 63.8063 209.094C64.2563 209.691 64.8271 210.198 65.4863 210.588C66.8176 211.376 68.4277 211.634 69.9626 211.308C70.8362 211.118 71.6535 210.747 72.3545 210.223L80.6301 232.081C81.0435 232.766 81.6821 233.307 82.4505 233.624C83.2189 233.94 84.0758 234.015 84.8932 233.836L100.769 230.471C101.58 230.292 102.31 229.878 102.854 229.286C103.398 228.694 103.729 227.956 103.798 227.177L100.171 197.122ZM69.5961 209.752C68.4999 209.984 67.3505 209.799 66.3997 209.237C65.4489 208.675 64.7745 207.783 64.5243 206.755C64.274 205.727 64.4684 204.649 65.0648 203.755C65.6612 202.862 66.6109 202.227 67.7057 201.989C67.7828 201.971 67.86 201.989 67.9371 201.971C67.9313 202.631 68.111 203.28 68.458 203.853L71.4865 208.811C70.9593 209.28 70.3057 209.605 69.5961 209.752Z" fill="#2F2E41"/>
<path d="M96.0237 193.195C96.2551 196.091 90.9697 199.42 83.8902 200.741C77.3893 201.989 71.5637 201.121 69.924 198.841C70.2535 198.658 70.6115 198.523 70.985 198.443L95.4064 193.268C95.6095 193.227 95.8161 193.203 96.0237 193.195Z" fill="#3F3D56"/>
<path d="M79.1339 266.691L92.8509 260.258L81.4201 231.307L78.4075 216.707C78.0161 214.81 77.1009 213.043 75.7532 211.582C74.4056 210.12 72.6728 209.017 70.7279 208.381C68.7831 207.745 66.6943 207.598 64.6704 207.957C62.6465 208.315 60.7582 209.165 59.1944 210.423C56.877 212.286 55.4219 214.921 55.1363 217.771C54.8507 220.622 55.7568 223.465 57.6635 225.701L68.8461 238.813L79.1339 266.691Z" fill="#A0616A"/>
<path d="M92.8509 254.896L74.5615 263.474L88.4413 304.269C89.438 307.199 91.2247 309.837 93.6282 311.928C96.0317 314.019 98.9705 315.492 102.16 316.204C106.092 317.083 110.22 316.763 113.946 315.293C117.671 313.822 120.801 311.276 122.881 308.025L159.686 248.849C162.294 244.771 163.099 239.899 161.929 235.272C160.759 230.645 157.706 226.63 153.424 224.086C151.12 222.718 148.535 221.82 145.838 221.45C143.14 221.081 140.389 221.248 137.765 221.942C135.14 222.636 132.701 223.84 130.606 225.477C128.511 227.113 126.806 229.145 125.603 231.44L103.139 276.341L92.8509 254.896Z" fill="#3F3D56"/>
<path d="M87.1941 218.029C87.1602 218.029 87.1264 218.024 87.0943 218.014L83.1012 216.724C83.0529 216.709 83.0095 216.682 82.975 216.647C82.9404 216.612 82.9158 216.569 82.9032 216.523C82.8907 216.476 82.8907 216.428 82.9032 216.381C82.9157 216.335 82.9404 216.292 82.9749 216.257L85.9448 213.224C85.972 213.196 86.0048 213.173 86.0414 213.157C86.078 213.141 86.1176 213.132 86.158 213.13C86.1984 213.128 86.2387 213.134 86.2767 213.147C86.3147 213.16 86.3496 213.18 86.3794 213.206C86.4091 213.231 86.4332 213.262 86.4502 213.297C86.4672 213.331 86.4769 213.368 86.4785 213.406C86.4801 213.444 86.4738 213.482 86.4598 213.517C86.4458 213.553 86.4245 213.586 86.397 213.613L83.7444 216.322L87.294 217.469C87.3627 217.491 87.4208 217.536 87.458 217.594C87.4952 217.653 87.509 217.722 87.497 217.789C87.485 217.856 87.448 217.917 87.3926 217.961C87.3371 218.005 87.2668 218.029 87.1941 218.029Z" fill="#6C63FF"/>
<path d="M92.6675 216.978C92.6064 216.978 92.5466 216.961 92.4959 216.929C92.4451 216.897 92.4058 216.852 92.3828 216.798C92.3599 216.745 92.3544 216.687 92.3671 216.631C92.3798 216.574 92.41 216.523 92.454 216.483L95.1531 214.035L91.5273 212.634C91.49 212.619 91.456 212.598 91.4274 212.572C91.3988 212.545 91.3761 212.513 91.3605 212.478C91.345 212.443 91.3369 212.406 91.3368 212.368C91.3368 212.33 91.3446 212.293 91.36 212.258C91.3754 212.223 91.398 212.191 91.4265 212.164C91.455 212.137 91.4888 212.116 91.5261 212.102C91.5634 212.087 91.6033 212.08 91.6437 212.08C91.684 212.08 91.724 212.087 91.7613 212.102L95.8206 213.671C95.8678 213.689 95.9094 213.718 95.9416 213.755C95.9739 213.792 95.9958 213.836 96.0054 213.883C96.015 213.93 96.0119 213.978 95.9965 214.024C95.9811 214.069 95.9539 214.111 95.9172 214.144L92.8811 216.897C92.8238 216.949 92.7472 216.978 92.6675 216.978Z" fill="#6C63FF"/>
<path d="M88.0324 219.792C88.0017 219.792 87.9713 219.787 87.9421 219.779C87.9035 219.767 87.8676 219.749 87.8365 219.725C87.8054 219.701 87.7797 219.672 87.7608 219.638C87.7419 219.605 87.7303 219.568 87.7265 219.53C87.7227 219.493 87.7269 219.455 87.7387 219.419L90.5731 210.777C90.5973 210.704 90.6513 210.643 90.7233 210.608C90.7952 210.572 90.8792 210.565 90.9569 210.587C91.0346 210.61 91.0996 210.66 91.1377 210.727C91.1759 210.795 91.184 210.874 91.1603 210.947L88.3259 219.588C88.3065 219.647 88.2676 219.699 88.2148 219.735C88.1619 219.772 88.098 219.792 88.0324 219.792Z" fill="#6C63FF"/>
</g>
<defs>
<clipPath id="clip0_11_35">
<rect width="355" height="333" fill="white"/>
</clipPath>
</defs>
</svg>
